<svg xmlns="http://www.w3.org/2000/svg" viewBox="0 0 823.08 823"><defs><style>.cls-1{fill:#cc1933;}</style></defs><g id="Capa_2" data-name="Capa 2"><g id="Capa_1-2" data-name="Capa 1"><path class="cls-1" d="M795.35,345.91l-313-317.33A95.68,95.68,0,0,0,414.37,0h-.69A95.66,95.66,0,0,0,346,27.63l-317.36,313A96.5,96.5,0,0,0,27.73,477l313,317.36a96.54,96.54,0,0,0,136.35.92l317.33-313A96.52,96.52,0,0,0,795.35,345.91ZM483.57,689.17q-33.52,35-73.42,31.7-50.86-4-97.91-49.39-37-35.68-50.87-95.55-56.31-7.87-98.08-48.2-40.48-39.09-49.52-86.79t18.7-76.68l106.3-111,46.4,44.78-39,40.05a23,23,0,0,0,7,37.31l-30,30.75a46.6,46.6,0,0,0,66.75,65.05l64.94-66.65L430,477.11l-65.3,67a46.59,46.59,0,0,0,66.74,65l29-29.74a23.36,23.36,0,0,0,32.94-.42l40.17-41.22,49.43,47.69ZM693.75,473,594.4,576.74l-50.94-49.16,40.36-41.43a23.36,23.36,0,0,0-.43-32.95l29-29.75a46.6,46.6,0,1,0-66.75-65l-66.28,68L404.2,353.9l66.62-68.36a46.6,46.6,0,1,0-66.74-65.06l-30,30.77a23.08,23.08,0,0,0-4.53-6.42,23.4,23.4,0,0,0-33,.43L295.1,287.87l-44.88-43.31,106.31-111q27.74-29,75.57-21.8t88.33,46.27q41.73,40.31,51.85,96.5,60.12,11.56,97.09,47.25,47,45.38,53,96.3Q727.27,438,693.75,473Z"/></g></g></svg>