<svg xmlns="http://www.w3.org/2000/svg" viewBox="0 0 1079.19 1079"><defs><style>.cls-1{fill:#e00917;}.cls-2{fill:#fff;}</style></defs><g id="Capa_2" data-name="Capa 2"><g id="Capa_2-2" data-name="Capa 2"><g id="Capa_1-2" data-name="Capa 1-2"><path class="cls-1" d="M536.75,1079a153,153,0,0,1-108.47-45.17L43.84,643.7c-59-59.75-58.33-156.48,1.42-215.51L435.39,43.74A151.52,151.52,0,0,1,542.44,0h1.06A150.09,150.09,0,0,1,650.91,45.17l384.44,389.77c59,59.75,58.32,156.48-1.42,215.52L644.15,1034.9a151.87,151.87,0,0,1-107,43.74"/><path d="M542.08,33.79a119.12,119.12,0,0,0-83.22,33.78L69.09,452.37C22.5,498.25,22.14,573.29,68,619.87l384.44,389.78c45.88,46.59,120.92,46.94,167.51,1.07l389.77-384.44c46.59-45.88,47-120.92,1.07-167.51L626.37,69a118.51,118.51,0,0,0-83.58-35.2h-.71"/><path class="cls-2" d="M640.24,745.06a28.65,28.65,0,0,1-40.54.35L564.13,782A57.34,57.34,0,0,1,482,702l80.37-82.51-92.46-89.27-79.66,81.8a57.34,57.34,0,0,1-82.16-80l37-37.7a40.3,40.3,0,0,1-8.18-5.33,28.66,28.66,0,0,1-.36-40.54l48-49.08-56.91-55.12L197.11,480.46c-22.76,23.83-30.22,55.13-23.11,94.25q11.2,58.68,60.81,106.69C269,714.47,309.14,734,355.37,740.79c11.38,49.08,32.37,88.2,62.6,117.36,38.4,37.34,78.59,57.26,120.2,60.81,32.72,2.85,62.59-10.31,90.33-39.12l122-127.31-60.81-58.68-49.43,50.5Z"/><path class="cls-1" d="M921.55,523.14q-7.47-62.42-65.09-118.43c-30.22-29.16-70.06-48.72-119.13-58-8.18-45.88-29.52-85.71-63.66-118.43-33.08-32-69.35-50.86-108.47-56.9s-70.06,3.2-92.82,26.67L341.86,334.3,397,387.64l50.86-52.28a28.65,28.65,0,0,1,40.54-.35,29.29,29.29,0,0,1,5.69,7.82l37-37.69a57.34,57.34,0,0,1,82.15,80l-81.8,83.93,92.47,89.27,81.44-83.58a57.34,57.34,0,0,1,82.15,80l-35.56,36.63a28.66,28.66,0,0,1,.35,40.55l-49.43,50.85,62.59,60.46L887.4,616c27.39-28.8,39.12-59.39,35.21-92.11"/></g></g></g></svg>